<svg width="626" height="800" viewBox="0 0 626 800" fill="none" xmlns="http://www.w3.org/2000/svg">
<path d="M618.632 694.419C629.591 709.174 626.577 730.155 610.959 739.845C557.678 772.922 497.221 793.09 434.432 798.516C360.561 804.897 286.37 790.619 220.141 757.284C153.913 723.942 98.2555 672.852 59.3817 609.712C20.5082 546.573 -0.0508487 473.872 9.4444e-05 399.725C0.0510376 325.579 20.7099 252.906 59.6702 189.82C98.6303 126.734 154.359 75.7195 220.632 42.4707C286.906 9.22205 361.117 -4.95148 434.98 1.53261C497.761 7.04392 558.19 27.2951 611.426 60.4427C627.029 70.1589 630.015 91.1414 619.037 105.884C608.057 120.627 587.279 123.518 571.515 114.062C528.302 88.1414 479.643 72.2756 429.159 67.844C367.588 62.4389 305.727 74.2537 250.482 101.969C195.237 129.685 148.783 172.21 116.306 224.798C83.8297 277.385 66.609 337.964 66.5664 399.771C66.5238 461.578 83.6619 522.181 116.066 574.813C148.47 627.444 194.866 670.032 250.073 697.826C305.279 725.619 367.124 737.516 428.702 732.193C479.193 727.832 527.874 712.032 571.122 686.174C586.899 676.742 607.673 679.658 618.632 694.419Z" fill="url(#paint0_linear_3708_164)"/>
<path d="M486.224 581.661C494.646 599.405 487.126 620.902 468.321 626.572C441.483 634.665 413.326 637.953 385.161 636.183C345.119 633.667 306.374 621.012 272.567 599.407C238.76 577.802 211.001 547.956 191.898 512.675C172.796 477.393 162.977 437.834 163.365 397.715C163.752 357.596 174.334 318.234 194.115 283.328C213.896 248.422 242.226 219.118 276.445 198.17C310.663 177.223 349.645 165.32 389.728 163.578C417.923 162.352 446.01 166.184 472.688 174.794C491.379 180.827 498.482 202.465 489.719 220.043C480.955 237.621 459.611 244.345 440.569 239.531C425.034 235.603 408.95 233.938 392.816 234.638C364.781 235.856 337.515 244.183 313.581 258.834C289.648 273.485 269.832 293.981 255.997 318.396C242.161 342.81 234.76 370.341 234.489 398.402C234.217 426.463 241.085 454.132 254.446 478.809C267.807 503.487 287.223 524.362 310.869 539.473C334.515 554.585 361.615 563.436 389.621 565.196C405.739 566.208 421.852 564.853 437.46 561.227C456.592 556.781 477.802 563.917 486.224 581.661Z" fill="url(#paint1_linear_3708_164)"/>
<path d="M553.544 642.986C564.669 660.593 559.583 684.103 540.867 693.239C500.036 713.168 455.366 724.271 409.741 725.658C351.559 727.426 293.984 713.322 243.094 684.845C192.205 656.361 149.89 614.555 120.619 563.841C91.3473 513.126 76.2053 455.386 76.7918 396.716C77.3789 338.046 93.6724 280.625 123.952 230.516C154.232 180.407 197.374 139.469 248.823 112.027C300.272 84.5846 358.117 71.6556 416.252 74.6059C461.845 76.9195 506.289 88.9324 546.717 109.691C565.239 119.201 569.849 142.804 558.375 160.179C546.781 177.734 523.189 182.185 504.124 173.289C475.408 159.889 444.301 152.105 412.462 150.49C367.885 148.228 323.529 158.142 284.079 179.185C244.628 200.227 211.547 231.617 188.329 270.041C165.11 308.464 152.616 352.494 152.167 397.482C151.717 442.47 163.327 486.745 185.772 525.632C208.218 564.519 240.665 596.575 279.686 618.415C318.708 640.255 362.856 651.071 407.47 649.71C439.332 648.742 470.586 641.595 499.563 628.783C518.806 620.275 542.305 625.201 553.544 642.986Z" fill="url(#paint2_linear_3708_164)"/>
<defs>
<linearGradient id="paint0_linear_3708_164" x1="400" y1="0.000184684" x2="400" y2="800" gradientUnits="userSpaceOnUse">
<stop stop-color="#853FFA"/>
<stop offset="0.47" stop-color="#DE4ADA"/>
<stop offset="1" stop-color="#D3F0D6"/>
</linearGradient>
<linearGradient id="paint1_linear_3708_164" x1="163.396" y1="321.399" x2="507.753" y2="673.49" gradientUnits="userSpaceOnUse">
<stop stop-color="#22C9FC"/>
<stop offset="0.998993" stop-color="#2CFECB"/>
</linearGradient>
<linearGradient id="paint2_linear_3708_164" x1="400.001" y1="74.1937" x2="400.001" y2="725.806" gradientUnits="userSpaceOnUse">
<stop stop-color="#272337"/>
<stop offset="0.71" stop-color="#853FFA"/>
<stop offset="1" stop-color="#F097FF"/>
</linearGradient>
</defs>
</svg>
